<svg id="Capa_1" enable-background="new 0 0 512 512" height="512" viewBox="0 0 512 512" width="512" xmlns="http://www.w3.org/2000/svg" xmlns:xlink="http://www.w3.org/1999/xlink"><linearGradient id="SVGID_1_" gradientUnits="userSpaceOnUse" x1="256" x2="256" y1="512" y2="0"><stop offset="0" stop-color="#5558ff"/><stop offset="1" stop-color="#00c0ff"/></linearGradient><g><g><path d="m226.057 0h-76.26c-51.533 0-95.054 36.68-103.477 87.202-6.958 41.66-15.263 105.59-15.263 168.798s8.306 127.138 15.264 168.798c8.422 50.522 51.943 87.202 103.476 87.202h76.26c8.291 0 15-6.709 15-15v-150c0-8.291-6.709-15-15-15h-71.133c-2.563-26.499-3.867-52.68-3.867-76 0-23.159 1.318-49.34 3.911-76h71.089c8.291 0 15-6.709 15-15v-150c0-8.291-6.709-15-15-15zm-45 362h30v120h-30zm-30-212h-9.609c-7.646 0-14.063 5.742-14.912 13.345-3.633 32.725-5.479 64.56-5.479 92.655 0 28.301 1.831 60.15 5.435 92.655.85 7.603 7.266 13.345 14.912 13.345h9.653v120h-1.26c-36.812 0-67.881-26.133-73.887-62.153-6.782-40.533-14.853-102.69-14.853-163.847s8.071-123.314 14.853-163.847c6.006-36.02 37.075-62.153 73.887-62.153h1.26zm60 0h-30v-120h30zm204.111-68.097c-5.859-5.859-15.352-5.859-21.211 0s-5.859 15.352 0 21.211c75.996 76.025 75.996 199.746 0 275.771-5.859 5.859-5.859 15.352 0 21.211s15.351 5.859 21.211 0c87.7-87.729 87.7-230.463 0-318.193zm-42.436 42.422c-5.859-5.859-15.352-5.859-21.211 0s-5.859 15.352 0 21.211c52.617 52.632 52.617 138.296 0 190.928-5.859 5.859-5.859 15.352 0 21.211s15.351 5.859 21.211 0c64.321-64.336 64.321-169.014 0-233.35zm-42.437 42.437c-5.859-5.859-15.352-5.859-21.211 0s-5.859 15.352 0 21.211c14.136 14.136 21.929 32.974 21.929 53.027s-7.793 38.892-21.929 53.027c-5.859 5.859-5.859 15.352 0 21.211s15.351 5.859 21.211 0c19.805-19.805 30.718-46.157 30.718-74.238s-10.913-54.434-30.718-74.238z" fill="url(#SVGID_1_)"/></g></g></svg>